#N canvas 42 34 1011 679 12;
#X obj 17 44 key;
#X floatatom 17 71 3 0 0 0 - - -;
#X floatatom 56 70 3 0 0 0 - - -;
#X obj 56 44 keyup;
#X floatatom 15 146 3 0 0 0 - - -;
#X obj 16 121 keyname;
#X symbolatom 87 122 10 0 0 0 - - -;
#X obj 17 95 bng 15 50 10 0 empty empty empty 0 -6 0 8 -262144 -1 -1
;
#X obj 56 95 bng 15 50 10 0 empty empty empty 0 -6 0 8 -262144 -1 -1
;
#X obj 15 171 bng 15 50 10 0 empty empty empty 0 -6 0 8 -262144 -1
-1;
#X floatatom 209 352 5 0 0 0 - - -;
#X floatatom 133 272 5 0 0 0 - - -;
#X obj 198 237 delay;
#X obj 98 239 random 1000;
#X floatatom 203 211 5 0 0 0 - - -;
#X obj 198 266 * 1.5;
#X text 81 170 off;
#X floatatom 48 236 0 0 0 0 - - -;
#X msg 46 193 1;
#X msg 78 193 0;
#X text 46 170 on;
#X floatatom 164 353 5 0 0 0 - - -;
#X obj 110 386 pgmout;
#X obj 48 387 noteout;
#X floatatom 119 352 5 0 0 0 - - -;
#X msg 29 301 49;
#X obj 44 352 makenote;
#X floatatom 91 330 5 0 0 0 - - -;
#X floatatom 143 329 5 0 0 0 - - -;
#X floatatom 72 302 5 0 0 0 - - -;
#X obj 74 278 / 12;
#X obj 132 295 * 1.7;
#X obj 189 295 * 20;
#X floatatom 250 147 3 0 0 0 - - -;
#X obj 251 122 keyname;
#X symbolatom 322 123 10 0 0 0 - - -;
#X obj 250 172 bng 15 50 10 0 empty empty empty 0 -6 0 8 -262144 -1
-1;
#X floatatom 444 353 5 0 0 0 - - -;
#X floatatom 368 273 5 0 0 0 - - -;
#X obj 433 238 delay;
#X obj 333 240 random 1000;
#X floatatom 438 212 5 0 0 0 - - -;
#X obj 433 267 * 1.5;
#X text 316 171 off;
#X floatatom 283 237 0 0 0 0 - - -;
#X msg 281 194 1;
#X msg 313 194 0;
#X text 281 171 on;
#X floatatom 399 354 5 0 0 0 - - -;
#X obj 345 387 pgmout;
#X obj 283 388 noteout;
#X floatatom 354 353 5 0 0 0 - - -;
#X msg 264 302 49;
#X obj 279 353 makenote;
#X floatatom 326 331 5 0 0 0 - - -;
#X floatatom 378 330 5 0 0 0 - - -;
#X floatatom 307 303 5 0 0 0 - - -;
#X obj 309 279 / 12;
#X obj 367 296 * 1.7;
#X obj 424 296 * 20;
#X obj 49 147 sel 121;
#X obj 284 148 sel 110;
#X floatatom 477 146 3 0 0 0 - - -;
#X obj 478 121 keyname;
#X symbolatom 549 122 10 0 0 0 - - -;
#X obj 477 171 bng 15 50 10 0 empty empty empty 0 -6 0 8 -262144 -1
-1;
#X floatatom 671 352 5 0 0 0 - - -;
#X floatatom 595 272 5 0 0 0 - - -;
#X obj 660 237 delay;
#X obj 560 239 random 1000;
#X floatatom 665 211 5 0 0 0 - - -;
#X obj 660 266 * 1.5;
#X text 543 170 off;
#X floatatom 510 236 0 0 0 0 - - -;
#X msg 508 193 1;
#X msg 540 193 0;
#X text 508 170 on;
#X floatatom 626 353 5 0 0 0 - - -;
#X obj 572 386 pgmout;
#X obj 510 387 noteout;
#X floatatom 581 352 5 0 0 0 - - -;
#X msg 491 301 49;
#X obj 506 352 makenote;
#X floatatom 553 330 5 0 0 0 - - -;
#X floatatom 605 329 5 0 0 0 - - -;
#X floatatom 534 302 5 0 0 0 - - -;
#X obj 536 278 / 12;
#X obj 594 295 * 1.7;
#X obj 651 295 * 20;
#X floatatom 716 145 3 0 0 0 - - -;
#X obj 717 120 keyname;
#X symbolatom 788 121 10 0 0 0 - - -;
#X obj 716 170 bng 15 50 10 0 empty empty empty 0 -6 0 8 -262144 -1
-1;
#X floatatom 910 351 5 0 0 0 - - -;
#X floatatom 834 271 5 0 0 0 - - -;
#X obj 899 236 delay;
#X obj 799 238 random 1000;
#X floatatom 904 210 5 0 0 0 - - -;
#X obj 899 265 * 1.5;
#X text 782 169 off;
#X floatatom 749 235 0 0 0 0 - - -;
#X msg 747 192 1;
#X msg 779 192 0;
#X text 747 169 on;
#X floatatom 865 352 5 0 0 0 - - -;
#X obj 811 385 pgmout;
#X obj 749 386 noteout;
#X floatatom 820 351 5 0 0 0 - - -;
#X msg 730 300 49;
#X obj 745 351 makenote;
#X floatatom 792 329 5 0 0 0 - - -;
#X floatatom 844 328 5 0 0 0 - - -;
#X floatatom 773 301 5 0 0 0 - - -;
#X obj 775 277 / 12;
#X obj 833 294 * 1.7;
#X obj 890 294 * 20;
#X floatatom 98 437 3 0 0 0 - - -;
#X obj 99 412 keyname;
#X symbolatom 170 413 10 0 0 0 - - -;
#X obj 98 462 bng 15 50 10 0 empty empty empty 0 -6 0 8 -262144 -1
-1;
#X floatatom 292 643 5 0 0 0 - - -;
#X floatatom 216 563 5 0 0 0 - - -;
#X obj 281 528 delay;
#X obj 181 530 random 1000;
#X floatatom 286 502 5 0 0 0 - - -;
#X obj 281 557 * 1.5;
#X text 164 461 off;
#X floatatom 131 527 0 0 0 0 - - -;
#X msg 129 484 1;
#X msg 161 484 0;
#X text 129 461 on;
#X floatatom 247 644 5 0 0 0 - - -;
#X obj 193 677 pgmout;
#X obj 131 678 noteout;
#X floatatom 202 643 5 0 0 0 - - -;
#X msg 112 592 49;
#X obj 127 643 makenote;
#X floatatom 174 621 5 0 0 0 - - -;
#X floatatom 226 620 5 0 0 0 - - -;
#X floatatom 155 593 5 0 0 0 - - -;
#X obj 157 569 / 12;
#X obj 215 586 * 1.7;
#X obj 272 586 * 20;
#X floatatom 334 444 3 0 0 0 - - -;
#X obj 335 419 keyname;
#X symbolatom 406 420 10 0 0 0 - - -;
#X obj 334 469 bng 15 50 10 0 empty empty empty 0 -6 0 8 -262144 -1
-1;
#X floatatom 528 650 5 0 0 0 - - -;
#X floatatom 452 570 5 0 0 0 - - -;
#X obj 517 535 delay;
#X obj 417 537 random 1000;
#X floatatom 522 509 5 0 0 0 - - -;
#X obj 517 564 * 1.5;
#X text 400 468 off;
#X floatatom 367 534 0 0 0 0 - - -;
#X msg 365 491 1;
#X msg 397 491 0;
#X text 365 468 on;
#X floatatom 483 651 5 0 0 0 - - -;
#X obj 429 684 pgmout;
#X obj 367 685 noteout;
#X floatatom 438 650 5 0 0 0 - - -;
#X msg 348 599 49;
#X obj 363 650 makenote;
#X floatatom 410 628 5 0 0 0 - - -;
#X floatatom 462 627 5 0 0 0 - - -;
#X floatatom 391 600 5 0 0 0 - - -;
#X obj 393 576 / 12;
#X obj 451 593 * 1.7;
#X obj 508 593 * 20;
#X floatatom 577 439 3 0 0 0 - - -;
#X obj 578 414 keyname;
#X symbolatom 649 415 10 0 0 0 - - -;
#X obj 577 464 bng 15 50 10 0 empty empty empty 0 -6 0 8 -262144 -1
-1;
#X floatatom 771 645 5 0 0 0 - - -;
#X floatatom 695 565 5 0 0 0 - - -;
#X obj 760 530 delay;
#X obj 660 532 random 1000;
#X floatatom 765 504 5 0 0 0 - - -;
#X obj 760 559 * 1.5;
#X text 643 463 off;
#X floatatom 610 529 0 0 0 0 - - -;
#X msg 608 486 1;
#X msg 640 486 0;
#X text 608 463 on;
#X floatatom 726 646 5 0 0 0 - - -;
#X obj 672 679 pgmout;
#X obj 610 680 noteout;
#X floatatom 681 645 5 0 0 0 - - -;
#X msg 591 594 49;
#X obj 606 645 makenote;
#X floatatom 653 623 5 0 0 0 - - -;
#X floatatom 705 622 5 0 0 0 - - -;
#X floatatom 634 595 5 0 0 0 - - -;
#X obj 636 571 / 12;
#X obj 694 588 * 1.7;
#X obj 751 588 * 20;
#X obj 511 147 sel 104;
#X obj 750 146 sel 96;
#X obj 132 438 sel 55;
#X obj 368 445 sel 48;
#X obj 611 440 sel 45;
#X connect 0 0 1 0;
#X connect 0 0 60 0;
#X connect 0 0 61 0;
#X connect 0 0 197 0;
#X connect 0 0 198 0;
#X connect 0 0 199 0;
#X connect 0 0 200 0;
#X connect 0 0 201 0;
#X connect 1 0 7 0;
#X connect 2 0 8 0;
#X connect 3 0 2 0;
#X connect 4 0 9 0;
#X connect 5 0 4 0;
#X connect 5 1 6 0;
#X connect 8 0 12 0;
#X connect 8 0 13 0;
#X connect 10 0 22 1;
#X connect 11 0 15 0;
#X connect 11 0 30 0;
#X connect 12 0 11 0;
#X connect 13 0 11 0;
#X connect 14 0 12 1;
#X connect 15 0 14 0;
#X connect 17 0 25 0;
#X connect 18 0 17 0;
#X connect 19 0 17 0;
#X connect 21 0 22 0;
#X connect 24 0 23 2;
#X connect 24 0 10 0;
#X connect 25 0 26 0;
#X connect 26 0 23 0;
#X connect 26 1 23 1;
#X connect 27 0 26 1;
#X connect 27 0 32 0;
#X connect 28 0 26 2;
#X connect 29 0 26 0;
#X connect 29 0 31 0;
#X connect 30 0 29 0;
#X connect 31 0 27 0;
#X connect 32 0 28 0;
#X connect 33 0 36 0;
#X connect 34 0 33 0;
#X connect 34 1 35 0;
#X connect 37 0 49 1;
#X connect 38 0 42 0;
#X connect 38 0 57 0;
#X connect 39 0 38 0;
#X connect 40 0 38 0;
#X connect 41 0 39 1;
#X connect 42 0 41 0;
#X connect 44 0 52 0;
#X connect 45 0 44 0;
#X connect 46 0 44 0;
#X connect 48 0 49 0;
#X connect 51 0 50 2;
#X connect 51 0 37 0;
#X connect 52 0 53 0;
#X connect 53 0 50 0;
#X connect 53 1 50 1;
#X connect 54 0 53 1;
#X connect 54 0 59 0;
#X connect 55 0 53 2;
#X connect 56 0 53 0;
#X connect 56 0 58 0;
#X connect 57 0 56 0;
#X connect 58 0 54 0;
#X connect 59 0 55 0;
#X connect 60 0 18 0;
#X connect 61 0 45 0;
#X connect 62 0 65 0;
#X connect 63 0 62 0;
#X connect 63 1 64 0;
#X connect 66 0 78 1;
#X connect 67 0 71 0;
#X connect 67 0 86 0;
#X connect 68 0 67 0;
#X connect 69 0 67 0;
#X connect 70 0 68 1;
#X connect 71 0 70 0;
#X connect 73 0 81 0;
#X connect 74 0 73 0;
#X connect 75 0 73 0;
#X connect 77 0 78 0;
#X connect 80 0 79 2;
#X connect 80 0 66 0;
#X connect 81 0 82 0;
#X connect 82 0 79 0;
#X connect 82 1 79 1;
#X connect 83 0 82 1;
#X connect 83 0 88 0;
#X connect 84 0 82 2;
#X connect 85 0 82 0;
#X connect 85 0 87 0;
#X connect 86 0 85 0;
#X connect 87 0 83 0;
#X connect 88 0 84 0;
#X connect 89 0 92 0;
#X connect 90 0 89 0;
#X connect 90 1 91 0;
#X connect 93 0 105 1;
#X connect 94 0 98 0;
#X connect 94 0 113 0;
#X connect 95 0 94 0;
#X connect 96 0 94 0;
#X connect 97 0 95 1;
#X connect 98 0 97 0;
#X connect 100 0 108 0;
#X connect 101 0 100 0;
#X connect 102 0 100 0;
#X connect 104 0 105 0;
#X connect 107 0 106 2;
#X connect 107 0 93 0;
#X connect 108 0 109 0;
#X connect 109 0 106 0;
#X connect 109 1 106 1;
#X connect 110 0 109 1;
#X connect 110 0 115 0;
#X connect 111 0 109 2;
#X connect 112 0 109 0;
#X connect 112 0 114 0;
#X connect 113 0 112 0;
#X connect 114 0 110 0;
#X connect 115 0 111 0;
#X connect 116 0 119 0;
#X connect 117 0 116 0;
#X connect 117 1 118 0;
#X connect 120 0 132 1;
#X connect 121 0 125 0;
#X connect 121 0 140 0;
#X connect 122 0 121 0;
#X connect 123 0 121 0;
#X connect 124 0 122 1;
#X connect 125 0 124 0;
#X connect 127 0 135 0;
#X connect 128 0 127 0;
#X connect 129 0 127 0;
#X connect 131 0 132 0;
#X connect 134 0 133 2;
#X connect 134 0 120 0;
#X connect 135 0 136 0;
#X connect 136 0 133 0;
#X connect 136 1 133 1;
#X connect 137 0 136 1;
#X connect 137 0 142 0;
#X connect 138 0 136 2;
#X connect 139 0 136 0;
#X connect 139 0 141 0;
#X connect 140 0 139 0;
#X connect 141 0 137 0;
#X connect 142 0 138 0;
#X connect 143 0 146 0;
#X connect 144 0 143 0;
#X connect 144 1 145 0;
#X connect 147 0 159 1;
#X connect 148 0 152 0;
#X connect 148 0 167 0;
#X connect 149 0 148 0;
#X connect 150 0 148 0;
#X connect 151 0 149 1;
#X connect 152 0 151 0;
#X connect 154 0 162 0;
#X connect 155 0 154 0;
#X connect 156 0 154 0;
#X connect 158 0 159 0;
#X connect 161 0 160 2;
#X connect 161 0 147 0;
#X connect 162 0 163 0;
#X connect 163 0 160 0;
#X connect 163 1 160 1;
#X connect 164 0 163 1;
#X connect 164 0 169 0;
#X connect 165 0 163 2;
#X connect 166 0 163 0;
#X connect 166 0 168 0;
#X connect 167 0 166 0;
#X connect 168 0 164 0;
#X connect 169 0 165 0;
#X connect 170 0 173 0;
#X connect 171 0 170 0;
#X connect 171 1 172 0;
#X connect 174 0 186 1;
#X connect 175 0 179 0;
#X connect 175 0 194 0;
#X connect 176 0 175 0;
#X connect 177 0 175 0;
#X connect 178 0 176 1;
#X connect 179 0 178 0;
#X connect 181 0 189 0;
#X connect 182 0 181 0;
#X connect 183 0 181 0;
#X connect 185 0 186 0;
#X connect 188 0 187 2;
#X connect 188 0 174 0;
#X connect 189 0 190 0;
#X connect 190 0 187 0;
#X connect 190 1 187 1;
#X connect 191 0 190 1;
#X connect 191 0 196 0;
#X connect 192 0 190 2;
#X connect 193 0 190 0;
#X connect 193 0 195 0;
#X connect 194 0 193 0;
#X connect 195 0 191 0;
#X connect 196 0 192 0;
#X connect 197 0 74 0;
#X connect 198 0 101 0;
#X connect 199 0 128 0;
#X connect 200 0 155 0;
#X connect 201 0 182 0;
